<?xml version="1.0" encoding="UTF-8"?>
<svg id="Capa_2" data-name="Capa 2" xmlns="http://www.w3.org/2000/svg" viewBox="0 0 1920 378.84">
  <defs>
    <style>
      .cls-1 {
        fill: #dae2cb;
      }

      .cls-2 {
        fill: #0f2e15;
      }
    </style>
  </defs>
  <g id="Capa_1-2" data-name="Capa 1">
    <g>
      <rect class="cls-1" width="1920" height="378.84"/>
      <g>
        <g>
          <g>
            <path class="cls-2" d="M1331.35,187.3v-37.1h6.71v37.1h-6.71ZM1335.96,155.76v-5.57h22.57v5.57h-22.57ZM1335.96,171.03v-5.35h20.88v5.35h-20.88ZM1335.96,187.3v-5.56h22.87v5.56h-22.87Z"/>
            <path class="cls-2" d="M1392.37,187.83c-2.92,0-5.64-.5-8.17-1.48-2.53-.99-4.75-2.36-6.65-4.11-1.91-1.75-3.39-3.78-4.46-6.1-1.07-2.31-1.6-4.8-1.6-7.45s.53-5.12,1.6-7.42c1.07-2.3,2.55-4.32,4.43-6.07,1.89-1.75,4.08-3.11,6.59-4.08,2.51-.97,5.22-1.46,8.14-1.46s5.63.49,8.14,1.46c2.51.97,4.71,2.33,6.62,4.08,1.9,1.75,3.39,3.78,4.46,6.1,1.07,2.31,1.6,4.8,1.6,7.45s-.54,5.13-1.6,7.45c-1.07,2.31-2.55,4.34-4.43,6.07-1.89,1.73-4.08,3.09-6.59,4.08-2.51.99-5.2,1.48-8.08,1.48ZM1392.25,182c2.76,0,5.18-.56,7.26-1.7,2.08-1.13,3.71-2.69,4.9-4.69,1.19-2,1.78-4.3,1.78-6.92,0-1.94-.34-3.72-1.02-5.33-.68-1.61-1.64-3-2.89-4.19-1.25-1.18-2.71-2.09-4.4-2.73-1.69-.64-3.57-.95-5.63-.95-2.72,0-5.12.56-7.2,1.67-2.08,1.11-3.71,2.66-4.9,4.64-1.19,1.98-1.78,4.28-1.78,6.89,0,1.94.34,3.74,1.02,5.38.68,1.64,1.63,3.05,2.86,4.21,1.23,1.17,2.69,2.08,4.4,2.73,1.71.65,3.58.98,5.6.98Z"/>
            <path class="cls-2" d="M1443.46,187.83c-3.07,0-5.83-.64-8.28-1.91-2.45-1.27-4.38-3.01-5.8-5.22-1.42-2.21-2.13-4.71-2.13-7.5v-23h6.71v22.95c0,1.8.42,3.37,1.25,4.69.84,1.33,1.97,2.35,3.41,3.07,1.44.72,3.05,1.09,4.84,1.09s3.44-.36,4.84-1.09c1.4-.72,2.51-1.75,3.32-3.07s1.23-2.87,1.23-4.64v-23h6.71v23.06c0,2.79-.7,5.28-2.1,7.47-1.4,2.19-3.31,3.92-5.72,5.19-2.41,1.27-5.17,1.91-8.28,1.91Z"/>
            <path class="cls-2" d="M1475.78,187.3v-37.1h6.71v37.1h-6.71Z"/>
            <path class="cls-2" d="M1496.14,155.76v-5.57h33.31v5.57h-33.31ZM1509.44,187.3v-36.04h6.71v36.04h-6.71Z"/>
            <path class="cls-2" d="M1543.09,187.3v-37.1h6.71v37.1h-6.71ZM1547.7,155.76v-5.57h22.57v5.57h-22.57ZM1547.7,171.03v-5.35h20.88v5.35h-20.88ZM1547.7,187.3v-5.56h22.87v5.56h-22.87Z"/>
            <path class="cls-2" d="M1585.32,187.3v-37.1h6.71v37.1h-6.71ZM1589.93,171.56v-5.04h10.32c2.06,0,3.67-.48,4.81-1.46,1.15-.97,1.72-2.32,1.72-4.06,0-1.55-.56-2.86-1.69-3.92-1.13-1.06-2.72-1.59-4.78-1.59h-10.38v-5.3h10.67c2.57,0,4.82.47,6.77,1.41s3.45,2.21,4.52,3.82c1.07,1.61,1.6,3.44,1.6,5.49,0,2.16-.53,4.03-1.6,5.62-1.07,1.59-2.58,2.83-4.52,3.71-1.94.88-4.2,1.33-6.77,1.33h-10.67ZM1607.72,187.3l-14.29-16.11,6.24-2.07,16.51,18.18h-8.46Z"/>
            <path class="cls-2" d="M1629.77,187.3v-37.1h6.71v37.1h-6.71ZM1634.38,171.56v-5.04h10.32c2.06,0,3.67-.48,4.81-1.46,1.15-.97,1.72-2.32,1.72-4.06,0-1.55-.56-2.86-1.69-3.92-1.13-1.06-2.72-1.59-4.78-1.59h-10.38v-5.3h10.67c2.57,0,4.82.47,6.77,1.41s3.45,2.21,4.52,3.82c1.07,1.61,1.6,3.44,1.6,5.49,0,2.16-.53,4.03-1.6,5.62-1.07,1.59-2.58,2.83-4.52,3.71-1.94.88-4.2,1.33-6.77,1.33h-10.67ZM1652.17,187.3l-14.29-16.11,6.24-2.07,16.51,18.18h-8.46Z"/>
            <path class="cls-2" d="M1671.19,187.3l16.8-37.1h4.67l16.68,37.1h-7.23l-13.07-30.05h2.45l-13.18,30.05h-7.12ZM1679.47,180.14v-5.3h21.64v5.3h-21.64Z"/>
          </g>
          <path class="cls-2" d="M1411.15,192.49l-1.67,3.59c-.49,1.06-1.45,1.76-2.54,1.86-.84.08-1.74.05-2.28-.08-7.19-1.69-13.72-3.37-20.97-5.52,6.17-4.15,19.44.39,27.47.15Z"/>
        </g>
        <g>
          <g>
            <path class="cls-2" d="M1473.04,229.17c-1.11,0-2.14-.2-3.09-.61-.95-.41-1.77-.97-2.48-1.7-.7-.72-1.25-1.57-1.63-2.53-.39-.96-.58-1.99-.58-3.09s.19-2.15.58-3.11c.38-.96.92-1.8,1.62-2.52.7-.72,1.52-1.28,2.47-1.69.95-.41,1.97-.61,3.06-.61,1.23,0,2.3.21,3.22.62.92.41,1.73.98,2.44,1.69l-1.44,1.44c-.49-.55-1.09-.98-1.8-1.29-.71-.31-1.52-.47-2.42-.47-.8,0-1.54.14-2.22.43-.68.29-1.27.7-1.78,1.23-.5.53-.89,1.16-1.17,1.89s-.41,1.52-.41,2.38.14,1.65.41,2.38c.27.73.66,1.35,1.17,1.89.5.53,1.1.94,1.78,1.23.68.29,1.43.43,2.24.43.96,0,1.8-.16,2.51-.48s1.31-.75,1.8-1.3l1.44,1.44c-.71.73-1.54,1.3-2.5,1.71-.95.41-2.03.62-3.23.62Z"/>
            <path class="cls-2" d="M1483.14,228.95l6.33-15.41h1.51l6.28,15.41h-2.27l-5.2-13.04h.8l-5.22,13.04h-2.24ZM1486.16,225.47v-1.82h8.11v1.82h-8.11Z"/>
            <path class="cls-2" d="M1502.73,228.95v-15.41h2.09v15.41h-2.09ZM1504.13,222.96v-1.82h4.2c.58,0,1.09-.12,1.54-.36.45-.24.81-.57,1.07-1,.26-.43.39-.94.39-1.53s-.13-1.1-.39-1.53c-.26-.43-.61-.76-1.07-1-.45-.24-.97-.36-1.54-.36h-4.2v-1.82h4.31c.95,0,1.8.19,2.55.58.76.39,1.35.93,1.79,1.63s.66,1.54.66,2.5-.22,1.78-.66,2.49-1.03,1.26-1.79,1.64c-.75.39-1.61.58-2.55.58h-4.31Z"/>
            <path class="cls-2" d="M1519.16,228.95v-15.41h2.09v15.41h-2.09Z"/>
            <path class="cls-2" d="M1526.71,215.45v-1.91h12.55v1.91h-12.55ZM1531.93,228.95v-14.97h2.11v14.97h-2.11Z"/>
            <path class="cls-2" d="M1543.57,228.95l6.33-15.41h1.51l6.28,15.41h-2.27l-5.2-13.04h.8l-5.22,13.04h-2.24ZM1546.59,225.47v-1.82h8.11v1.82h-8.11Z"/>
            <path class="cls-2" d="M1563.15,228.95v-15.41h2.09v15.41h-2.09ZM1564.57,228.95v-1.91h8.26v1.91h-8.26Z"/>
          </g>
          <g>
            <rect class="cls-2" x="1595.98" y="221.3" width="76.87" height=".94"/>
            <rect class="cls-2" x="1364.81" y="221.3" width="76.87" height=".94"/>
          </g>
        </g>
      </g>
    </g>
  </g>
</svg>