<?xml version="1.0" encoding="UTF-8"?>
<svg id="Capa_2" data-name="Capa 2" xmlns="http://www.w3.org/2000/svg" viewBox="0 0 425.82 324.44">
  <defs>
    <style>
      .cls-1 {
        fill: #565953;
      }

      .cls-2 {
        fill: #0f2e15;
      }
    </style>
  </defs>
  <g id="Capa_1-2" data-name="Capa 1">
    <g>
      <g>
        <path class="cls-2" d="M162.32,157.29c7.58,4.57,15.76,7.44,23.8,10.54,4.05,1.56,7.97,3.23,11.77,5.11,2.21-4.32,4.53-8.35,6.97-12.09l-1.87-2.53c-9.01-12.21-25.48-20.25-41.41-28.03-11.75-5.74-23.89-11.67-33.33-19.45-8.75-7.2-14.36-15.27-16.96-24.47-.69,4.77-1.05,9.64-1.05,14.59,0,47.46,32.74,87.27,76.87,98.08,1.57-4.79,3.51-10.1,5.88-15.61.18-.42.35-.82.53-1.23-1.51-.86-3.03-1.7-4.56-2.48-12.76-6.57-25.77-12.48-36.59-23.19-3.82-3.78-7.44-8.1-10.03-13.15-.62-1.21-1.98-4.2-2.06-5.18,2.06,5.18,14.04,14.26,22.06,19.09Z"/>
        <path class="cls-2" d="M311.13,86.38c-2.6,9.19-8.21,17.26-16.96,24.46-9.44,7.78-21.59,13.71-33.34,19.45-11.96,5.84-24.02,11.45-33.96,20.49-6.88,6.25-12.75,13.63-17.23,21.77-2.41,4.36-4.62,8.89-6.61,13.44-.33.76-2.44,6.45-4.02,10.6-.19.51.5.87.81.42,5.91-8.65,13.12-16.2,21.12-23.01,9.76-8.31,20.27-13.91,32.15-18.7,7.74-3.12,15.62-6.06,22.78-10.38,7.58-4.58,18.76-12.98,20.41-17.47,0,.83-1.13,3.43-1.65,4.49-2.19,4.41-5.44,8.27-8.93,11.7-9.91,9.7-22.35,15.5-34.5,21.84-15.98,8.34-30.83,20.71-40.02,36.46h.03c55.77,0,100.97-45.21,100.97-100.97,0-4.95-.35-9.83-1.05-14.59Z"/>
        <path class="cls-2" d="M282.94,73.72c0,.67-.01,1.34-.04,2.01-.56,14.13-7.06,23.63-16.12,31.42v-36.85l-21.39-19.3v70.88c-2.85,1.77-5.71,3.57-8.53,5.43V33.13l-21.39-19.3v133.34c5.95-6.31,13.39-11.45,21.39-16.01,2.78-1.59,5.64-3.12,8.53-4.6,7.14-3.66,14.46-7.07,21.39-10.62,18.89-9.67,34.8-20.38,35.8-40.2.03-.67.05-1.33.05-2.01C302.62,37.71,262.19.45,212.13,0c39.19.58,70.81,37.78,70.81,73.72Z"/>
        <path class="cls-2" d="M155.64,115.94c6.92,3.55,14.25,6.95,21.39,10.62,2.89,1.48,5.74,3,8.53,4.6,8,4.56,15.43,9.7,21.39,16.01V13.82l-21.39,19.3v94.2c-2.81-1.87-5.68-3.66-8.53-5.44V51.01l-21.39,19.3v36.86c-9.06-7.8-15.57-17.3-16.13-31.43-.03-.66-.04-1.33-.04-2.01C139.47,37.78,171.09.58,210.28,0c-50.05.45-90.49,37.71-90.49,73.72,0,.68.01,1.35.05,2.01,1,19.82,16.91,30.53,35.8,40.21Z"/>
      </g>
      <g>
        <g>
          <path class="cls-2" d="M0,277.26v-41.8h7.56v41.8H0ZM5.19,241.73v-6.27h25.43v6.27H5.19ZM5.19,258.93v-6.03h23.53v6.03H5.19ZM5.19,277.26v-6.27h25.76v6.27H5.19Z"/>
          <path class="cls-2" d="M68.74,277.86c-3.29,0-6.35-.56-9.2-1.67-2.85-1.11-5.35-2.66-7.49-4.63-2.15-1.97-3.82-4.26-5.03-6.87-1.21-2.61-1.81-5.4-1.81-8.39s.6-5.77,1.81-8.36c1.2-2.59,2.87-4.87,4.99-6.84,2.12-1.97,4.6-3.5,7.43-4.6,2.83-1.09,5.88-1.64,9.17-1.64s6.34.55,9.17,1.64c2.83,1.1,5.31,2.63,7.46,4.6,2.15,1.97,3.82,4.26,5.03,6.87,1.2,2.61,1.81,5.4,1.81,8.39s-.6,5.78-1.81,8.39c-1.21,2.61-2.87,4.89-4.99,6.84-2.12,1.95-4.6,3.48-7.43,4.6-2.83,1.11-5.86,1.67-9.1,1.67ZM68.6,271.29c3.11,0,5.84-.64,8.18-1.91,2.34-1.27,4.18-3.04,5.52-5.28,1.34-2.25,2-4.85,2-7.79,0-2.19-.38-4.19-1.15-6-.77-1.81-1.85-3.38-3.25-4.72-1.4-1.33-3.06-2.36-4.96-3.07-1.91-.72-4.02-1.08-6.34-1.08-3.07,0-5.77.63-8.12,1.88-2.34,1.25-4.18,3-5.52,5.22-1.34,2.23-2,4.82-2,7.76,0,2.19.38,4.21,1.15,6.06.77,1.85,1.84,3.43,3.22,4.75,1.38,1.31,3.03,2.34,4.96,3.08,1.93.74,4.03,1.1,6.31,1.1Z"/>
          <path class="cls-2" d="M126.3,277.86c-3.46,0-6.57-.72-9.33-2.15-2.76-1.43-4.94-3.39-6.54-5.88-1.6-2.49-2.4-5.3-2.4-8.45v-25.91h7.56v25.85c0,2.03.47,3.79,1.41,5.28.94,1.49,2.22,2.65,3.84,3.46,1.62.82,3.44,1.22,5.45,1.22s3.88-.41,5.45-1.22c1.58-.82,2.83-1.97,3.75-3.46s1.38-3.23,1.38-5.22v-25.91h7.56v25.97c0,3.14-.79,5.95-2.37,8.42-1.58,2.47-3.72,4.42-6.44,5.85-2.72,1.43-5.83,2.15-9.33,2.15Z"/>
          <path class="cls-2" d="M162.7,277.26v-41.8h7.56v41.8h-7.56Z"/>
          <path class="cls-2" d="M185.64,241.73v-6.27h37.52v6.27h-37.52ZM200.62,277.26v-40.6h7.56v40.6h-7.56Z"/>
          <path class="cls-2" d="M238.54,277.26v-41.8h7.56v41.8h-7.56ZM243.73,241.73v-6.27h25.43v6.27h-25.43ZM243.73,258.93v-6.03h23.53v6.03h-23.53ZM243.73,277.26v-6.27h25.76v6.27h-25.76Z"/>
          <path class="cls-2" d="M286.11,277.26v-41.8h7.56v41.8h-7.56ZM291.3,259.53v-5.67h11.63c2.32,0,4.13-.55,5.42-1.64,1.29-1.09,1.94-2.62,1.94-4.57,0-1.75-.64-3.22-1.91-4.42-1.27-1.19-3.07-1.79-5.39-1.79h-11.7v-5.97h12.03c2.89,0,5.43.53,7.62,1.58s3.89,2.49,5.09,4.3c1.2,1.81,1.81,3.87,1.81,6.18,0,2.43-.6,4.54-1.81,6.33-1.2,1.79-2.9,3.19-5.09,4.18-2.19,1-4.73,1.49-7.62,1.49h-12.03ZM311.35,277.26l-16.1-18.15,7.03-2.33,18.6,20.48h-9.53Z"/>
          <path class="cls-2" d="M336.19,277.26v-41.8h7.56v41.8h-7.56ZM341.38,259.53v-5.67h11.63c2.32,0,4.13-.55,5.42-1.64,1.29-1.09,1.94-2.62,1.94-4.57,0-1.75-.64-3.22-1.91-4.42-1.27-1.19-3.07-1.79-5.39-1.79h-11.7v-5.97h12.03c2.89,0,5.43.53,7.62,1.58s3.89,2.49,5.09,4.3c1.2,1.81,1.81,3.87,1.81,6.18,0,2.43-.6,4.54-1.81,6.33-1.2,1.79-2.9,3.19-5.09,4.18-2.19,1-4.73,1.49-7.62,1.49h-12.03ZM361.42,277.26l-16.1-18.15,7.03-2.33,18.6,20.48h-9.53Z"/>
          <path class="cls-2" d="M382.84,277.26l18.93-41.8h5.26l18.79,41.8h-8.15l-14.72-33.86h2.76l-14.85,33.86h-8.02ZM392.17,269.2v-5.97h24.38v5.97h-24.38Z"/>
        </g>
        <path class="cls-2" d="M89.9,283.11l-1.88,4.04c-.55,1.19-1.64,1.99-2.86,2.1-.95.08-1.96.06-2.57-.09-8.1-1.9-15.46-3.79-23.63-6.22,6.95-4.68,21.9.44,30.94.17Z"/>
      </g>
      <g>
        <g>
          <path class="cls-1" d="M159.62,324.44c-1.25,0-2.41-.23-3.48-.69-1.07-.46-2-1.1-2.79-1.91-.79-.82-1.41-1.77-1.84-2.85-.43-1.08-.65-2.24-.65-3.48s.22-2.42.65-3.5c.43-1.08,1.04-2.03,1.83-2.84.78-.81,1.71-1.44,2.78-1.9,1.07-.46,2.22-.69,3.45-.69,1.38,0,2.59.23,3.63.7,1.03.47,1.95,1.1,2.75,1.9l-1.63,1.63c-.55-.62-1.23-1.1-2.03-1.45-.8-.35-1.71-.53-2.73-.53-.9,0-1.73.16-2.5.49-.77.32-1.43.79-2,1.39-.57.6-1,1.31-1.31,2.13s-.46,1.71-.46,2.68.15,1.86.46,2.68c.31.82.75,1.53,1.31,2.13.57.6,1.23,1.06,2,1.39.77.33,1.61.49,2.53.49,1.08,0,2.03-.18,2.83-.54s1.48-.85,2.03-1.46l1.63,1.63c-.8.82-1.74,1.46-2.81,1.93-1.08.47-2.29.7-3.64.7Z"/>
          <path class="cls-1" d="M171,324.19l7.13-17.36h1.7l7.08,17.36h-2.55l-5.85-14.69h.9l-5.88,14.69h-2.53ZM174.4,320.26v-2.05h9.13v2.05h-9.13Z"/>
          <path class="cls-1" d="M193.06,324.19v-17.36h2.35v17.36h-2.35ZM194.64,317.43v-2.05h4.73c.65,0,1.23-.13,1.74-.4.51-.27.91-.64,1.2-1.13.29-.48.44-1.06.44-1.73s-.15-1.24-.44-1.73c-.29-.48-.69-.86-1.2-1.13-.51-.27-1.09-.4-1.74-.4h-4.73v-2.05h4.85c1.07,0,2.03.22,2.88.65.85.43,1.52,1.05,2.01,1.84s.74,1.73.74,2.81-.25,2-.74,2.8-1.16,1.42-2.01,1.85c-.85.43-1.81.65-2.88.65h-4.85Z"/>
          <path class="cls-1" d="M211.58,324.19v-17.36h2.35v17.36h-2.35Z"/>
          <path class="cls-1" d="M220.08,308.98v-2.15h14.14v2.15h-14.14ZM225.96,324.19v-16.86h2.38v16.86h-2.38Z"/>
          <path class="cls-1" d="M239.07,324.19l7.13-17.36h1.7l7.08,17.36h-2.55l-5.85-14.69h.9l-5.88,14.69h-2.53ZM242.47,320.26v-2.05h9.13v2.05h-9.13Z"/>
          <path class="cls-1" d="M261.14,324.19v-17.36h2.35v17.36h-2.35ZM262.74,324.19v-2.15h9.31v2.15h-9.31Z"/>
        </g>
        <g>
          <rect class="cls-1" x="298.11" y="315.56" width="86.6" height="1.06"/>
          <rect class="cls-1" x="37.69" y="315.56" width="86.6" height="1.06"/>
        </g>
      </g>
    </g>
  </g>
</svg>