<?xml version="1.0" encoding="UTF-8"?>
<svg id="Capa_2" data-name="Capa 2" xmlns="http://www.w3.org/2000/svg" viewBox="0 0 389.18 331.87">
  <defs>
    <style>
      .cls-1 {
        fill: #dae2cb;
      }
    </style>
  </defs>
  <g id="Capa_1-2" data-name="Capa 1">
    <g>
      <g>
        <g>
          <path class="cls-1" d="M148.36,143.76c6.93,4.18,14.4,6.8,21.75,9.63,3.7,1.43,7.28,2.96,10.75,4.67,2.02-3.95,4.14-7.64,6.37-11.05l-1.71-2.32c-8.23-11.16-23.29-18.51-37.85-25.62-10.74-5.25-21.83-10.67-30.46-17.77-8-6.58-13.13-13.96-15.5-22.36-.63,4.36-.96,8.81-.96,13.34,0,43.38,29.92,79.77,70.26,89.64,1.44-4.38,3.21-9.23,5.37-14.27.16-.38.32-.75.49-1.13-1.38-.79-2.77-1.55-4.16-2.27-11.66-6.01-23.56-11.41-33.44-21.2-3.49-3.45-6.8-7.41-9.17-12.02-.57-1.11-1.81-3.84-1.88-4.74,1.88,4.74,12.83,13.03,20.16,17.45Z"/>
          <path class="cls-1" d="M284.36,78.95c-2.38,8.4-7.5,15.78-15.5,22.35-8.63,7.11-19.73,12.53-30.47,17.77-10.93,5.33-21.95,10.47-31.04,18.73-6.29,5.71-11.65,12.45-15.75,19.9-2.2,3.99-4.22,8.12-6.04,12.28-.3.69-2.23,5.9-3.67,9.69-.18.47.46.8.74.39,5.41-7.9,11.99-14.8,19.3-21.03,8.92-7.59,18.53-12.71,29.38-17.09,7.07-2.85,14.28-5.54,20.82-9.49,6.93-4.19,17.15-11.86,18.66-15.96,0,.76-1.03,3.14-1.51,4.1-2,4.03-4.97,7.56-8.17,10.69-9.06,8.86-20.43,14.16-31.53,19.96-14.61,7.62-28.17,18.93-36.57,33.33h.02c50.97,0,92.29-41.32,92.29-92.29,0-4.52-.32-8.98-.96-13.33Z"/>
          <path class="cls-1" d="M258.59,67.38c0,.62-.01,1.23-.04,1.84-.51,12.91-6.45,21.6-14.74,28.72v-33.68l-19.55-17.64v64.78c-2.6,1.62-5.22,3.26-7.79,4.97V30.28l-19.55-17.64v121.87c5.44-5.77,12.24-10.46,19.55-14.63,2.55-1.46,5.15-2.85,7.79-4.21,6.53-3.34,13.22-6.46,19.55-9.7,17.26-8.84,31.8-18.63,32.72-36.74.03-.61.04-1.22.04-1.84C276.58,34.47,239.63.41,193.88,0c35.82.53,64.72,34.53,64.72,67.38Z"/>
          <path class="cls-1" d="M142.25,105.97c6.33,3.24,13.03,6.35,19.55,9.7,2.64,1.35,5.25,2.74,7.79,4.2,7.31,4.17,14.1,8.86,19.55,14.63V12.63l-19.55,17.64v86.09c-2.57-1.71-5.19-3.35-7.79-4.97V46.62l-19.55,17.64v33.69c-8.28-7.13-14.23-15.81-14.74-28.73-.02-.6-.04-1.21-.04-1.84C127.47,34.53,156.37.53,192.18,0c-45.75.41-82.7,34.47-82.7,67.38,0,.62.01,1.23.04,1.84.91,18.12,15.45,27.91,32.72,36.75Z"/>
        </g>
        <g>
          <g>
            <path class="cls-1" d="M0,253.41v-38.2h6.91v38.2H0ZM4.74,220.94v-5.73h23.24v5.73H4.74ZM4.74,236.65v-5.51h21.5v5.51H4.74ZM4.74,253.41v-5.73h23.54v5.73H4.74Z"/>
            <path class="cls-1" d="M62.82,253.95c-3,0-5.81-.51-8.41-1.53-2.6-1.02-4.89-2.43-6.85-4.23-1.96-1.8-3.49-3.89-4.59-6.28-1.1-2.38-1.65-4.94-1.65-7.67s.55-5.27,1.65-7.64c1.1-2.36,2.62-4.45,4.56-6.25,1.94-1.8,4.2-3.2,6.79-4.2,2.58-1,5.37-1.5,8.38-1.5s5.8.5,8.38,1.5c2.58,1,4.85,2.4,6.82,4.2,1.96,1.8,3.49,3.89,4.59,6.28,1.1,2.38,1.65,4.94,1.65,7.67s-.55,5.29-1.65,7.67c-1.1,2.38-2.62,4.47-4.56,6.25-1.94,1.78-4.2,3.18-6.79,4.2-2.58,1.02-5.36,1.53-8.32,1.53ZM62.7,247.95c2.84,0,5.34-.58,7.48-1.75,2.14-1.16,3.82-2.77,5.05-4.83,1.22-2.05,1.83-4.43,1.83-7.12,0-2-.35-3.83-1.05-5.48-.7-1.65-1.69-3.09-2.97-4.31-1.28-1.22-2.79-2.16-4.53-2.81-1.74-.65-3.67-.98-5.8-.98-2.8,0-5.28.57-7.42,1.72-2.14,1.15-3.82,2.74-5.05,4.78-1.22,2.04-1.83,4.4-1.83,7.09,0,2,.35,3.85,1.05,5.54.7,1.69,1.68,3.14,2.94,4.34s2.77,2.14,4.54,2.81c1.76.67,3.68,1.01,5.77,1.01Z"/>
            <path class="cls-1" d="M115.43,253.95c-3.16,0-6.01-.65-8.53-1.96-2.52-1.31-4.51-3.1-5.98-5.38-1.46-2.27-2.19-4.85-2.19-7.72v-23.68h6.91v23.63c0,1.86.43,3.47,1.29,4.83s2.03,2.42,3.51,3.17c1.48.75,3.14,1.12,4.99,1.12s3.54-.37,4.99-1.12c1.44-.75,2.58-1.8,3.42-3.17s1.26-2.96,1.26-4.78v-23.68h6.91v23.74c0,2.87-.72,5.44-2.16,7.69-1.44,2.26-3.4,4.04-5.89,5.35-2.48,1.31-5.33,1.96-8.53,1.96Z"/>
            <path class="cls-1" d="M148.7,253.41v-38.2h6.91v38.2h-6.91Z"/>
            <path class="cls-1" d="M169.67,220.94v-5.73h34.29v5.73h-34.29ZM183.36,253.41v-37.11h6.91v37.11h-6.91Z"/>
            <path class="cls-1" d="M218.01,253.41v-38.2h6.91v38.2h-6.91ZM222.76,220.94v-5.73h23.24v5.73h-23.24ZM222.76,236.65v-5.51h21.5v5.51h-21.5ZM222.76,253.41v-5.73h23.54v5.73h-23.54Z"/>
            <path class="cls-1" d="M261.5,253.41v-38.2h6.91v38.2h-6.91ZM266.24,237.2v-5.18h10.63c2.12,0,3.77-.5,4.96-1.5,1.18-1,1.77-2.39,1.77-4.17,0-1.6-.58-2.95-1.74-4.04-1.16-1.09-2.8-1.64-4.93-1.64h-10.69v-5.46h10.99c2.64,0,4.96.48,6.97,1.45,2,.96,3.55,2.27,4.65,3.93,1.1,1.66,1.65,3.54,1.65,5.65,0,2.22-.55,4.15-1.65,5.78-1.1,1.64-2.65,2.91-4.65,3.82-2,.91-4.33,1.36-6.97,1.36h-10.99ZM284.56,253.41l-14.71-16.59,6.43-2.13,17,18.72h-8.71Z"/>
            <path class="cls-1" d="M307.26,253.41v-38.2h6.91v38.2h-6.91ZM312.01,237.2v-5.18h10.63c2.12,0,3.77-.5,4.96-1.5,1.18-1,1.77-2.39,1.77-4.17,0-1.6-.58-2.95-1.74-4.04-1.16-1.09-2.8-1.64-4.93-1.64h-10.69v-5.46h10.99c2.64,0,4.96.48,6.97,1.45,2,.96,3.55,2.27,4.65,3.93,1.1,1.66,1.65,3.54,1.65,5.65,0,2.22-.55,4.15-1.65,5.78-1.1,1.64-2.65,2.91-4.65,3.82-2,.91-4.33,1.36-6.97,1.36h-10.99ZM330.32,253.41l-14.71-16.59,6.43-2.13,17,18.72h-8.71Z"/>
            <path class="cls-1" d="M349.9,253.41l17.3-38.2h4.8l17.18,38.2h-7.45l-13.45-30.94h2.52l-13.57,30.94h-7.33ZM358.43,246.04v-5.46h22.28v5.46h-22.28Z"/>
          </g>
          <path class="cls-1" d="M82.16,258.75l-1.72,3.69c-.51,1.09-1.5,1.82-2.62,1.91-.87.08-1.79.05-2.35-.08-7.4-1.74-14.13-3.47-21.59-5.69,6.35-4.27,20.01.4,28.28.16Z"/>
        </g>
        <g>
          <g>
            <path class="cls-1" d="M145.88,296.52c-1.14,0-2.2-.21-3.18-.63-.98-.42-1.83-1-2.55-1.75-.72-.75-1.28-1.62-1.68-2.61-.4-.99-.59-2.05-.59-3.18s.2-2.21.59-3.2c.4-.99.95-1.86,1.67-2.6.72-.74,1.56-1.32,2.54-1.74.98-.42,2.03-.63,3.16-.63,1.27,0,2.37.21,3.32.64.94.43,1.78,1.01,2.51,1.74l-1.49,1.49c-.5-.56-1.12-1.01-1.85-1.33-.73-.32-1.56-.48-2.49-.48-.82,0-1.59.15-2.29.45s-1.31.72-1.83,1.27c-.52.55-.92,1.2-1.2,1.94s-.42,1.56-.42,2.45.14,1.7.42,2.45c.28.75.68,1.39,1.2,1.94.52.55,1.13.97,1.83,1.27s1.47.45,2.31.45c.99,0,1.85-.16,2.58-.49.73-.33,1.35-.77,1.85-1.34l1.49,1.49c-.73.75-1.59,1.33-2.57,1.76-.98.43-2.09.64-3.33.64Z"/>
            <path class="cls-1" d="M156.28,296.29l6.52-15.87h1.56l6.47,15.87h-2.33l-5.35-13.42h.82l-5.37,13.42h-2.31ZM159.39,292.7v-1.87h8.35v1.87h-8.35Z"/>
            <path class="cls-1" d="M176.45,296.29v-15.87h2.15v15.87h-2.15ZM177.89,290.12v-1.87h4.32c.59,0,1.12-.12,1.59-.37.46-.24.83-.59,1.1-1.03.27-.44.4-.97.4-1.58s-.13-1.14-.4-1.58c-.27-.44-.63-.79-1.1-1.03-.47-.24-.99-.37-1.59-.37h-4.32v-1.87h4.44c.98,0,1.85.2,2.63.59.78.4,1.39.96,1.84,1.68.45.72.68,1.58.68,2.57s-.23,1.83-.68,2.56c-.45.73-1.06,1.3-1.84,1.69-.78.4-1.65.59-2.63.59h-4.44Z"/>
            <path class="cls-1" d="M193.37,296.29v-15.87h2.15v15.87h-2.15Z"/>
            <path class="cls-1" d="M201.15,282.39v-1.97h12.92v1.97h-12.92ZM206.52,296.29v-15.41h2.17v15.41h-2.17Z"/>
            <path class="cls-1" d="M218.5,296.29l6.52-15.87h1.56l6.47,15.87h-2.33l-5.35-13.42h.82l-5.37,13.42h-2.31ZM221.61,292.7v-1.87h8.35v1.87h-8.35Z"/>
            <path class="cls-1" d="M238.67,296.29v-15.87h2.15v15.87h-2.15ZM240.13,296.29v-1.97h8.51v1.97h-8.51Z"/>
          </g>
          <g>
            <rect class="cls-1" x="272.46" y="288.41" width="79.15" height=".97"/>
            <rect class="cls-1" x="34.45" y="288.41" width="79.15" height=".97"/>
          </g>
        </g>
      </g>
      <g>
        <path class="cls-1" d="M75.41,328.55v-11.63h2.1v11.63h-2.1ZM76.86,318.66v-1.74h6.82v1.74h-6.82ZM76.86,323.56v-1.74h6.51v1.74h-6.51Z"/>
        <path class="cls-1" d="M88.96,319.11c-.34,0-.63-.11-.85-.32-.23-.21-.34-.47-.34-.78s.11-.57.34-.78c.22-.21.51-.32.85-.32s.64.11.86.32c.22.21.33.47.33.78s-.11.57-.33.78c-.22.21-.51.32-.86.32ZM87.95,328.55v-7.97h2.01v7.97h-2.01Z"/>
        <path class="cls-1" d="M94.66,328.55v-7.97h2.01v7.97h-2.01ZM100.68,328.55v-4.6c0-.53-.19-.97-.56-1.31-.37-.34-.85-.51-1.44-.51-.39,0-.74.08-1.04.23s-.54.37-.71.65c-.17.28-.26.59-.26.95l-.79-.4c0-.61.15-1.15.44-1.62.29-.47.7-.84,1.22-1.11.52-.27,1.1-.41,1.75-.41s1.24.15,1.75.46c.51.3.91.7,1.21,1.18s.44.98.44,1.5v5h-2.01Z"/>
        <path class="cls-1" d="M110.86,328.71c-.79,0-1.51-.18-2.15-.55-.64-.37-1.15-.86-1.52-1.49-.37-.63-.56-1.33-.56-2.1s.18-1.49.56-2.12c.37-.63.88-1.12,1.52-1.5.64-.37,1.36-.56,2.15-.56.67,0,1.26.13,1.78.39.52.26.93.62,1.23,1.07.3.45.46.97.46,1.55v2.29c0,.58-.15,1.09-.45,1.54-.3.45-.71.81-1.23,1.07-.52.26-1.12.39-1.79.39ZM111.19,326.98c.74,0,1.34-.23,1.8-.68.46-.45.69-1.04.69-1.74,0-.48-.1-.9-.31-1.26-.21-.37-.5-.65-.87-.86-.37-.2-.81-.31-1.31-.31s-.92.1-1.29.31c-.37.2-.67.49-.88.86-.21.37-.32.79-.32,1.26s.11.9.32,1.26c.21.37.51.65.88.86.37.21.8.31,1.29.31ZM113.55,328.55v-2.14l.35-1.94-.35-1.93v-1.96h2.01v7.97h-2.01Z"/>
        <path class="cls-1" d="M120.24,328.55v-7.97h2.01v7.97h-2.01ZM126.26,328.55v-4.6c0-.53-.19-.97-.56-1.31-.37-.34-.85-.51-1.44-.51-.39,0-.74.08-1.04.23s-.54.37-.71.65c-.17.28-.26.59-.26.95l-.79-.4c0-.61.15-1.15.44-1.62.29-.47.7-.84,1.22-1.11.52-.27,1.1-.41,1.75-.41s1.24.15,1.75.46c.51.3.91.7,1.21,1.18s.44.98.44,1.5v5h-2.01Z"/>
        <path class="cls-1" d="M136.81,328.71c-.87,0-1.65-.18-2.35-.55-.7-.37-1.25-.86-1.65-1.5-.4-.63-.6-1.33-.6-2.11s.2-1.49.6-2.12c.4-.63.95-1.12,1.65-1.49s1.48-.55,2.35-.55c.68,0,1.32.12,1.91.36.59.24,1.09.58,1.51,1.02l-1.32,1.21c-.26-.28-.56-.48-.92-.62s-.75-.21-1.18-.21c-.5,0-.94.1-1.33.31-.38.21-.68.48-.9.84-.21.35-.32.77-.32,1.25s.11.88.32,1.24c.21.36.51.64.9.85.38.2.83.31,1.33.31.43,0,.82-.07,1.18-.21.36-.14.67-.35.92-.62l1.32,1.21c-.41.44-.92.78-1.51,1.02-.59.24-1.23.36-1.91.36Z"/>
        <path class="cls-1" d="M148.2,328.71c-.88,0-1.67-.18-2.37-.54-.7-.36-1.25-.86-1.66-1.49-.41-.63-.61-1.34-.61-2.13s.2-1.49.6-2.12c.4-.63.95-1.12,1.64-1.49.69-.37,1.45-.55,2.29-.55s1.54.17,2.17.52c.63.34,1.12.81,1.48,1.41s.54,1.28.54,2.04c0,.13,0,.27-.03.41-.02.14-.05.29-.08.46h-7.2v-1.5h6.16l-.75.6c-.02-.49-.13-.9-.31-1.23-.18-.33-.44-.59-.78-.76s-.75-.27-1.23-.27c-.51,0-.96.1-1.34.3-.38.2-.67.48-.88.84-.21.36-.31.79-.31,1.29s.11.94.33,1.31c.22.38.53.67.93.87.4.2.87.31,1.39.31.45,0,.87-.07,1.25-.22.38-.14.71-.35.98-.63l1.28,1.18c-.43.45-.95.8-1.56,1.03s-1.26.35-1.94.35Z"/>
        <path class="cls-1" d="M162.66,323.68c-.39,0-.71-.12-.96-.36-.25-.24-.38-.53-.38-.87s.13-.65.38-.88c.25-.23.57-.35.96-.35s.71.12.96.35.38.53.38.88-.13.63-.38.87c-.25.24-.57.36-.96.36Z"/>
        <path class="cls-1" d="M173.94,328.55v-11.63h2.1v11.63h-2.1ZM175.39,318.66v-1.74h7.08v1.74h-7.08ZM175.39,323.44v-1.68h6.55v1.68h-6.55ZM175.39,328.55v-1.74h7.17v1.74h-7.17Z"/>
        <path class="cls-1" d="M190.58,328.71c-.79,0-1.51-.18-2.15-.55-.64-.37-1.15-.86-1.52-1.49-.37-.63-.56-1.33-.56-2.1s.18-1.49.56-2.12c.37-.63.88-1.12,1.52-1.5.64-.37,1.36-.56,2.15-.56.67,0,1.26.13,1.78.39.52.26.93.62,1.23,1.07.3.45.46.97.46,1.55v2.29c0,.58-.15,1.09-.45,1.54-.3.45-.71.81-1.23,1.07-.52.26-1.12.39-1.79.39ZM190.91,326.98c.74,0,1.34-.23,1.8-.68.46-.45.69-1.04.69-1.74,0-.48-.1-.9-.31-1.26-.21-.37-.5-.65-.87-.86-.37-.2-.81-.31-1.31-.31s-.92.1-1.29.31c-.37.2-.67.49-.88.86-.21.37-.32.79-.32,1.26s.11.9.32,1.26c.21.37.51.65.88.86.37.21.8.31,1.29.31ZM193.27,331.87v-5.28l.35-1.93-.35-1.94v-2.14h2.01v11.3h-2.01Z"/>
        <path class="cls-1" d="M203.56,328.71c-.74,0-1.4-.15-1.98-.45-.58-.3-1.03-.71-1.35-1.24-.32-.53-.49-1.13-.49-1.82v-4.64h2.01v4.55c0,.39.07.72.21.99.14.27.35.48.62.62s.6.22.98.22c.58,0,1.03-.16,1.34-.47.31-.32.47-.77.47-1.35v-4.55h2.01v4.64c0,.7-.16,1.31-.49,1.84-.32.53-.77.94-1.34,1.23-.57.29-1.24.44-1.99.44Z"/>
        <path class="cls-1" d="M212.88,319.11c-.34,0-.62-.11-.85-.32-.23-.21-.34-.47-.34-.78s.11-.57.34-.78c.23-.21.51-.32.85-.32s.64.11.86.32c.22.21.33.47.33.78s-.11.57-.33.78c-.22.21-.51.32-.86.32ZM211.88,328.55v-7.97h2.01v7.97h-2.01Z"/>
        <path class="cls-1" d="M217.82,322.23v-1.66h6.22v1.66h-6.22ZM219.92,328.55v-11.3h2.01v11.3h-2.01Z"/>
        <path class="cls-1" d="M230.78,328.63l-3.75-8.06h2.21l2.56,5.91h-.64l2.71-5.91h2.23l-4.08,8.06h-1.24ZM228.17,331.87l2.72-5.1,1.13,1.86-1.63,3.24h-2.23Z"/>
        <path class="cls-1" d="M246.2,323.68c-.39,0-.71-.12-.96-.36-.25-.24-.38-.53-.38-.87s.13-.65.38-.88c.25-.23.57-.35.96-.35s.71.12.96.35.38.53.38.88-.13.63-.38.87c-.25.24-.57.36-.96.36Z"/>
        <path class="cls-1" d="M257.48,328.55v-11.63h2.1v11.63h-2.1ZM258.92,318.66v-1.74h7.08v1.74h-7.08ZM258.92,323.44v-1.68h6.55v1.68h-6.55ZM258.92,328.55v-1.74h7.17v1.74h-7.17Z"/>
        <path class="cls-1" d="M274.12,328.71c-.79,0-1.51-.18-2.15-.55-.64-.37-1.15-.86-1.52-1.49-.37-.63-.56-1.33-.56-2.1s.19-1.49.56-2.12c.37-.63.88-1.12,1.52-1.5.64-.37,1.36-.56,2.15-.56.67,0,1.26.13,1.78.39.52.26.93.62,1.23,1.07.3.45.46.97.46,1.55v2.29c0,.58-.15,1.09-.45,1.54-.3.45-.71.81-1.23,1.07-.52.26-1.12.39-1.79.39ZM274.45,326.98c.74,0,1.34-.23,1.8-.68.46-.45.69-1.04.69-1.74,0-.48-.1-.9-.31-1.26-.21-.37-.5-.65-.87-.86-.37-.2-.81-.31-1.31-.31s-.92.1-1.29.31c-.37.2-.66.49-.88.86-.21.37-.32.79-.32,1.26s.11.9.32,1.26.51.65.88.86c.37.21.8.31,1.29.31ZM276.8,328.55v-2.14l.35-1.94-.35-1.93v-1.96h2.01v7.97h-2.01Z"/>
        <path class="cls-1" d="M283.5,328.55v-7.97h2.01v7.97h-2.01ZM285.51,324.11l-.7-.32c0-1.01.25-1.82.74-2.45s1.24-.94,2.24-.94c.44,0,.83.07,1.19.22.35.14.68.38.99.7l-1.32,1.23c-.16-.15-.34-.27-.53-.33-.2-.07-.42-.1-.68-.1-.56,0-1.02.16-1.39.48-.37.32-.55.83-.55,1.51Z"/>
        <path class="cls-1" d="M292.95,322.23v-1.66h6.22v1.66h-6.22ZM295.05,328.55v-11.3h2.01v11.3h-2.01Z"/>
        <path class="cls-1" d="M303.08,328.55v-11.96h2.01v11.96h-2.01ZM309.09,328.55v-4.6c0-.53-.19-.97-.56-1.31-.37-.34-.85-.51-1.44-.51-.39,0-.74.08-1.04.23s-.54.37-.71.65c-.17.28-.26.59-.26.95l-.79-.4c0-.61.15-1.15.44-1.62.29-.47.7-.84,1.22-1.11.52-.27,1.1-.41,1.75-.41s1.24.13,1.75.4c.51.27.91.63,1.21,1.1s.44,1.02.44,1.64v5h-2.01Z"/>
      </g>
    </g>
  </g>
</svg>