<?xml version="1.0" encoding="UTF-8"?>
<svg id="Capa_2" data-name="Capa 2" xmlns="http://www.w3.org/2000/svg" viewBox="0 0 595.32 125.22">
  <g id="Capa_1-2" data-name="Capa 1">
    <g>
      <g>
        <g>
          <path d="M0,59.27V.83h10.57v58.43H0ZM7.26,9.6V.83h35.55v8.77H7.26ZM7.26,33.64v-8.43h32.89v8.43H7.26ZM7.26,59.27v-8.76h36.01v8.76H7.26Z"/>
          <path d="M96.1,60.1c-4.59,0-8.88-.78-12.86-2.34-3.98-1.56-7.47-3.71-10.47-6.47-3-2.75-5.34-5.96-7.03-9.6-1.69-3.64-2.53-7.55-2.53-11.73s.84-8.07,2.53-11.69c1.68-3.62,4.01-6.8,6.98-9.56,2.97-2.75,6.43-4.9,10.38-6.43,3.95-1.53,8.22-2.29,12.82-2.29s8.87.77,12.82,2.29c3.95,1.53,7.43,3.67,10.43,6.43,3,2.75,5.34,5.96,7.03,9.6,1.68,3.65,2.53,7.55,2.53,11.73s-.84,8.08-2.53,11.73c-1.69,3.65-4.01,6.83-6.98,9.56-2.97,2.73-6.43,4.87-10.38,6.43-3.95,1.56-8.19,2.34-12.72,2.34ZM95.91,50.92c4.35,0,8.16-.89,11.44-2.67,3.28-1.78,5.85-4.24,7.72-7.39,1.87-3.14,2.8-6.77,2.8-10.89,0-3.06-.54-5.86-1.61-8.39-1.07-2.53-2.59-4.73-4.55-6.59-1.96-1.86-4.27-3.3-6.94-4.3-2.66-1-5.62-1.5-8.87-1.5-4.29,0-8.07.88-11.35,2.63-3.28,1.75-5.85,4.19-7.72,7.3-1.87,3.12-2.8,6.73-2.8,10.85,0,3.06.54,5.89,1.61,8.47,1.07,2.59,2.57,4.8,4.5,6.64,1.93,1.84,4.24,3.27,6.94,4.3,2.69,1.03,5.63,1.54,8.82,1.54Z"/>
          <path d="M176.57,60.1c-4.84,0-9.19-1-13.04-3.01-3.86-2-6.91-4.74-9.14-8.22-2.24-3.48-3.35-7.42-3.35-11.81V.83h10.57v36.15c0,2.84.66,5.3,1.98,7.39,1.32,2.09,3.11,3.7,5.37,4.84,2.27,1.14,4.81,1.71,7.62,1.71s5.42-.57,7.63-1.71c2.2-1.14,3.95-2.75,5.24-4.84s1.93-4.52,1.93-7.3V.83h10.56v36.31c0,4.4-1.1,8.32-3.31,11.77-2.21,3.45-5.21,6.18-9,8.18-3.8,2-8.15,3.01-13.05,3.01Z"/>
          <path d="M227.47,59.27V.83h10.57v58.43h-10.57Z"/>
          <path d="M259.53,9.6V.83h52.46v8.77h-52.46ZM280.48,59.27V2.5h10.57v56.76h-10.57Z"/>
          <path d="M333.49,59.27V.83h10.57v58.43h-10.57ZM340.75,9.6V.83h35.55v8.77h-35.55ZM340.75,33.64v-8.43h32.89v8.43h-32.89ZM340.75,59.27v-8.76h36.01v8.76h-36.01Z"/>
          <path d="M400,59.27V.83h10.57v58.43h-10.57ZM407.26,34.48v-7.93h16.26c3.25,0,5.77-.76,7.58-2.29,1.81-1.53,2.71-3.66,2.71-6.39,0-2.45-.89-4.51-2.66-6.18-1.78-1.67-4.29-2.5-7.53-2.5h-16.35V.83h16.81c4.04,0,7.59.74,10.66,2.21s5.44,3.48,7.12,6.01c1.68,2.53,2.53,5.41,2.53,8.64,0,3.39-.84,6.34-2.53,8.85-1.68,2.5-4.06,4.45-7.12,5.84-3.06,1.39-6.61,2.09-10.66,2.09h-16.81ZM435.28,59.27l-22.51-25.38,9.83-3.26,26,28.63h-13.32Z"/>
          <path d="M470.01,59.27V.83h10.57v58.43h-10.57ZM477.27,34.48v-7.93h16.26c3.25,0,5.77-.76,7.58-2.29,1.81-1.53,2.71-3.66,2.71-6.39,0-2.45-.89-4.51-2.66-6.18-1.78-1.67-4.29-2.5-7.53-2.5h-16.35V.83h16.81c4.04,0,7.59.74,10.66,2.21s5.44,3.48,7.12,6.01c1.68,2.53,2.53,5.41,2.53,8.64,0,3.39-.84,6.34-2.53,8.85-1.68,2.5-4.06,4.45-7.12,5.84-3.06,1.39-6.61,2.09-10.66,2.09h-16.81ZM505.29,59.27l-22.51-25.38,9.83-3.26,26,28.63h-13.32Z"/>
          <path d="M535.24,59.27L561.69.83h7.35l26.28,58.43h-11.39l-20.58-47.33h3.86l-20.76,47.33h-11.21ZM548.28,48v-8.35h34.08v8.35h-34.08Z"/>
        </g>
        <path d="M125.68,67.44l-2.63,5.65c-.77,1.66-2.29,2.78-4,2.93-1.33.12-2.73.08-3.6-.12-11.32-2.66-21.61-5.3-33.03-8.7,9.72-6.54,30.61.61,43.26.24Z"/>
      </g>
      <g>
        <g>
          <path d="M223.15,125.22c-1.75,0-3.37-.32-4.86-.96-1.49-.64-2.79-1.53-3.9-2.68-1.11-1.14-1.96-2.47-2.57-3.99-.61-1.51-.91-3.14-.91-4.86s.3-3.38.91-4.9c.61-1.52,1.46-2.84,2.55-3.97,1.1-1.13,2.39-2.02,3.88-2.66,1.49-.64,3.1-.96,4.83-.96,1.94,0,3.63.33,5.07.98,1.45.65,2.73,1.54,3.85,2.66l-2.27,2.27c-.77-.86-1.71-1.54-2.83-2.03-1.12-.49-2.39-.73-3.81-.73-1.26,0-2.42.23-3.5.68-1.07.45-2.01,1.1-2.8,1.94-.79.84-1.4,1.83-1.84,2.97s-.65,2.39-.65,3.74.22,2.6.65,3.74c.43,1.14,1.04,2.13,1.84,2.97.79.84,1.73,1.49,2.8,1.94,1.07.46,2.25.68,3.53.68,1.52,0,2.83-.25,3.95-.75s2.06-1.18,2.83-2.05l2.27,2.27c-1.12,1.14-2.43,2.04-3.93,2.69-1.5.65-3.2.98-5.09.98Z"/>
          <path d="M239.06,124.87l9.97-24.27h2.38l9.9,24.27h-3.57l-8.18-20.53h1.26l-8.22,20.53h-3.53ZM243.82,119.38v-2.87h12.77v2.87h-12.77Z"/>
          <path d="M269.91,124.87v-24.27h3.29v24.27h-3.29ZM272.12,115.43v-2.87h6.61c.91,0,1.72-.19,2.43-.56.71-.37,1.27-.9,1.68-1.57.41-.68.61-1.48.61-2.41s-.21-1.74-.61-2.41c-.41-.68-.97-1.2-1.68-1.57-.71-.37-1.52-.56-2.43-.56h-6.61v-2.87h6.79c1.49,0,2.83.3,4.02.91,1.19.61,2.13,1.46,2.82,2.57s1.03,2.42,1.03,3.93-.34,2.8-1.03,3.92-1.63,1.98-2.82,2.59c-1.19.61-2.53.91-4.02.91h-6.79Z"/>
          <path d="M295.8,124.87v-24.27h3.29v24.27h-3.29Z"/>
          <path d="M307.69,103.61v-3.01h19.76v3.01h-19.76ZM315.91,124.87v-23.57h3.32v23.57h-3.32Z"/>
          <path d="M334.23,124.87l9.97-24.27h2.38l9.9,24.27h-3.57l-8.18-20.53h1.26l-8.22,20.53h-3.53ZM338.99,119.38v-2.87h12.77v2.87h-12.77Z"/>
          <path d="M365.08,124.87v-24.27h3.29v24.27h-3.29ZM367.32,124.87v-3.01h13.01v3.01h-13.01Z"/>
        </g>
        <g>
          <rect x="416.78" y="112.81" width="121.07" height="1.48"/>
          <rect x="52.69" y="112.81" width="121.07" height="1.48"/>
        </g>
      </g>
    </g>
  </g>
</svg>