<?xml version="1.0" encoding="UTF-8"?>
<svg id="Capa_2" data-name="Capa 2" xmlns="http://www.w3.org/2000/svg" viewBox="0 0 361.62 361.62">
  <defs>
    <style>
      .cls-1 {
        fill: #fff;
      }

      .cls-2 {
        fill: #0f2e15;
      }
    </style>
  </defs>
  <g id="Capa_1-2" data-name="Capa 1">
    <g>
      <circle class="cls-1" cx="180.81" cy="180.81" r="180.81"/>
      <g>
        <path class="cls-2" d="M115.07,256.56c10.19,6.15,21.19,10.01,32.01,14.18,5.45,2.1,10.71,4.35,15.83,6.87,2.97-5.82,6.09-11.24,9.37-16.26l-2.52-3.41c-12.12-16.42-34.27-27.24-55.7-37.7-15.8-7.72-32.13-15.7-44.83-26.16-11.77-9.69-19.31-20.54-22.81-32.91-.93,6.41-1.41,12.96-1.41,19.63,0,63.83,44.03,117.38,103.39,131.91,2.12-6.44,4.73-13.58,7.9-21,.24-.56.48-1.11.71-1.66-2.03-1.16-4.08-2.28-6.13-3.33-17.16-8.84-34.66-16.79-49.22-31.19-5.14-5.08-10-10.9-13.49-17.68-.83-1.63-2.67-5.65-2.77-6.97,2.77,6.97,18.88,19.18,29.66,25.68Z"/>
        <path class="cls-2" d="M315.21,161.19c-3.5,12.36-11.04,23.22-22.8,32.9-12.7,10.46-29.04,18.44-44.84,26.16-16.09,7.85-32.3,15.4-45.68,27.56-9.26,8.41-17.14,18.33-23.18,29.28-3.24,5.87-6.21,11.95-8.89,18.08-.45,1.02-3.28,8.68-5.4,14.26-.26.69.68,1.17,1.09.57,7.95-11.63,17.65-21.79,28.4-30.95,13.13-11.17,27.26-18.71,43.24-25.15,10.4-4.19,21.01-8.15,30.64-13.97,10.19-6.16,25.23-17.46,27.46-23.49,0,1.12-1.52,4.62-2.23,6.04-2.94,5.93-7.32,11.13-12.02,15.73-13.33,13.04-30.07,20.84-46.4,29.38-21.49,11.22-41.46,27.85-53.82,49.04h.04c75.01,0,135.81-60.8,135.81-135.81,0-6.66-.48-13.22-1.41-19.62Z"/>
        <path class="cls-2" d="M277.29,144.17c0,.91-.02,1.8-.06,2.7-.75,19-9.5,31.78-21.69,42.26v-49.56l-28.77-25.95v95.33c-3.83,2.38-7.67,4.8-11.47,7.31v-126.68l-28.77-25.96v179.33c8-8.49,18-15.39,28.77-21.53,3.75-2.14,7.58-4.19,11.47-6.19,9.61-4.92,19.45-9.51,28.77-14.28,25.4-13,46.8-27.41,48.14-54.07.05-.9.06-1.79.06-2.7,0-48.44-54.37-98.55-121.7-99.16,52.71.78,95.24,50.81,95.24,99.16Z"/>
        <path class="cls-2" d="M106.08,200.95c9.31,4.77,19.17,9.35,28.77,14.28,3.88,1.99,7.72,4.04,11.47,6.18,10.76,6.14,20.75,13.04,28.77,21.53V63.6l-28.77,25.96v126.69c-3.78-2.52-7.64-4.93-11.47-7.32v-95.33l-28.77,25.95v49.57c-12.19-10.49-20.94-23.26-21.7-42.27-.04-.89-.05-1.79-.05-2.7,0-48.35,42.53-98.38,95.24-99.16-67.32.6-121.7,50.72-121.7,99.16,0,.92.02,1.81.06,2.7,1.35,26.66,22.74,41.07,48.15,54.08Z"/>
      </g>
    </g>
  </g>
</svg>